  0
SECTION
  2
HEADER
  9
$ACADVER
  1
AC1015
  9
$ACADMAINTVER
 70
6
  9
$DWGCODEPAGE
  3
ANSI_1252
  9
$INSBASE
 10
0.0
 20
0.0
 30
0.0
  9
$EXTMIN
 10
1e+20
 20
1e+20
 30
1e+20
  9
$EXTMAX
 10
-1e+20
 20
-1e+20
 30
-1e+20
  9
$LIMMIN
 10
0.0
 20
0.0
  9
$LIMMAX
 10
420.0
 20
297.0
  9
$ORTHOMODE
 70
0
  9
$REGENMODE
 70
1
  9
$FILLMODE
 70
1
  9
$QTEXTMODE
 70
0
  9
$MIRRTEXT
 70
1
  9
$LTSCALE
 40
1.0
  9
$ATTMODE
 70
1
  9
$TEXTSIZE
 40
2.5
  9
$TRACEWID
 40
1.0
  9
$TEXTSTYLE
  7
Standard
  9
$CLAYER
  8
0
  9
$CELTYPE
  6
ByLayer
  9
$CECOLOR
 62
256
  9
$CELTSCALE
 40
1.0
  9
$DISPSILH
 70
0
  9
$DIMSCALE
 40
1.0
  9
$DIMASZ
 40
2.5
  9
$DIMEXO
 40
0.625
  9
$DIMDLI
 40
3.75
  9
$DIMRND
 40
0.0
  9
$DIMDLE
 40
0.0
  9
$DIMEXE
 40
1.25
  9
$DIMTP
 40
0.0
  9
$DIMTM
 40
0.0
  9
$DIMTXT
 40
2.5
  9
$DIMCEN
 40
2.5
  9
$DIMTSZ
 40
0.0
  9
$DIMTOL
 70
0
  9
$DIMLIM
 70
0
  9
$DIMTIH
 70
0
  9
$DIMTOH
 70
0
  9
$DIMSE1
 70
0
  9
$DIMSE2
 70
0
  9
$DIMTAD
 70
1
  9
$DIMZIN
 70
8
  9
$DIMBLK
  1

  9
$DIMASO
 70
1
  9
$DIMSHO
 70
1
  9
$DIMPOST
  1

  9
$DIMAPOST
  1

  9
$DIMALT
 70
0
  9
$DIMALTD
 70
3
  9
$DIMALTF
 40
0.03937007874
  9
$DIMLFAC
 40
1.0
  9
$DIMTOFL
 70
1
  9
$DIMTVP
 40
0.0
  9
$DIMTIX
 70
0
  9
$DIMSOXD
 70
0
  9
$DIMSAH
 70
0
  9
$DIMBLK1
  1

  9
$DIMBLK2
  1

  9
$DIMSTYLE
  2
ISO-25
  9
$DIMCLRD
 70
0
  9
$DIMCLRE
 70
0
  9
$DIMCLRT
 70
0
  9
$DIMTFAC
 40
1.0
  9
$DIMGAP
 40
0.625
  9
$DIMJUST
 70
0
  9
$DIMSD1
 70
0
  9
$DIMSD2
 70
0
  9
$DIMTOLJ
 70
0
  9
$DIMTZIN
 70
8
  9
$DIMALTZ
 70
0
  9
$DIMALTTZ
 70
0
  9
$DIMUPT
 70
0
  9
$DIMDEC
 70
2
  9
$DIMTDEC
 70
2
  9
$DIMALTU
 70
2
  9
$DIMALTTD
 70
3
  9
$DIMTXSTY
  7
Standard
  9
$DIMAUNIT
 70
0
  9
$DIMADEC
 70
0
  9
$DIMALTRND
 40
0.0
  9
$DIMAZIN
 70
0
  9
$DIMDSEP
 70
44
  9
$DIMATFIT
 70
3
  9
$DIMFRAC
 70
0
  9
$DIMLDRBLK
  1

  9
$DIMLUNIT
 70
2
  9
$DIMLWD
 70
-2
  9
$DIMLWE
 70
-2
  9
$DIMTMOVE
 70
0
  9
$LUNITS
 70
2
  9
$LUPREC
 70
4
  9
$SKETCHINC
 40
1.0
  9
$FILLETRAD
 40
10.0
  9
$AUNITS
 70
0
  9
$AUPREC
 70
2
  9
$MENU
  1
.
  9
$ELEVATION
 40
0.0
  9
$PELEVATION
 40
0.0
  9
$THICKNESS
 40
0.0
  9
$LIMCHECK
 70
0
  9
$CHAMFERA
 40
0.0
  9
$CHAMFERB
 40
0.0
  9
$CHAMFERC
 40
0.0
  9
$CHAMFERD
 40
0.0
  9
$SKPOLY
 70
0
  9
$TDCREATE
 40
2459570.505914352
  9
$TDUCREATE
 40
2458532.153996898
  9
$TDUPDATE
 40
2459570.505914352
  9
$TDUUPDATE
 40
2458532.1544311
  9
$TDINDWG
 40
0.0
  9
$TDUSRTIMER
 40
0.0
  9
$USRTIMER
 70
1
  9
$ANGBASE
 50
0.0
  9
$ANGDIR
 70
0
  9
$PDMODE
 70
0
  9
$PDSIZE
 40
0.0
  9
$PLINEWID
 40
0.0
  9
$SPLFRAME
 70
0
  9
$SPLINETYPE
 70
6
  9
$SPLINESEGS
 70
8
  9
$HANDSEED
  5
5E
  9
$SURFTAB1
 70
6
  9
$SURFTAB2
 70
6
  9
$SURFTYPE
 70
6
  9
$SURFU
 70
6
  9
$SURFV
 70
6
  9
$UCSBASE
  2

  9
$UCSNAME
  2

  9
$UCSORG
 10
0.0
 20
0.0
 30
0.0
  9
$UCSXDIR
 10
1.0
 20
0.0
 30
0.0
  9
$UCSYDIR
 10
0.0
 20
1.0
 30
0.0
  9
$UCSORTHOREF
  2

  9
$UCSORTHOVIEW
 70
0
  9
$UCSORGTOP
 10
0.0
 20
0.0
 30
0.0
  9
$UCSORGBOTTOM
 10
0.0
 20
0.0
 30
0.0
  9
$UCSORGLEFT
 10
0.0
 20
0.0
 30
0.0
  9
$UCSORGRIGHT
 10
0.0
 20
0.0
 30
0.0
  9
$UCSORGFRONT
 10
0.0
 20
0.0
 30
0.0
  9
$UCSORGBACK
 10
0.0
 20
0.0
 30
0.0
  9
$PUCSBASE
  2

  9
$PUCSNAME
  2

  9
$PUCSORG
 10
0.0
 20
0.0
 30
0.0
  9
$PUCSXDIR
 10
1.0
 20
0.0
 30
0.0
  9
$PUCSYDIR
 10
0.0
 20
1.0
 30
0.0
  9
$PUCSORTHOREF
  2

  9
$PUCSORTHOVIEW
 70
0
  9
$PUCSORGTOP
 10
0.0
 20
0.0
 30
0.0
  9
$PUCSORGBOTTOM
 10
0.0
 20
0.0
 30
0.0
  9
$PUCSORGLEFT
 10
0.0
 20
0.0
 30
0.0
  9
$PUCSORGRIGHT
 10
0.0
 20
0.0
 30
0.0
  9
$PUCSORGFRONT
 10
0.0
 20
0.0
 30
0.0
  9
$PUCSORGBACK
 10
0.0
 20
0.0
 30
0.0
  9
$USERI1
 70
0
  9
$USERI2
 70
0
  9
$USERI3
 70
0
  9
$USERI4
 70
0
  9
$USERI5
 70
0
  9
$USERR1
 40
0.0
  9
$USERR2
 40
0.0
  9
$USERR3
 40
0.0
  9
$USERR4
 40
0.0
  9
$USERR5
 40
0.0
  9
$WORLDVIEW
 70
1
  9
$SHADEDGE
 70
3
  9
$SHADEDIF
 70
70
  9
$TILEMODE
 70
1
  9
$MAXACTVP
 70
64
  9
$PINSBASE
 10
0.0
 20
0.0
 30
0.0
  9
$PLIMCHECK
 70
0
  9
$PEXTMIN
 10
1e+20
 20
1e+20
 30
1e+20
  9
$PEXTMAX
 10
-1e+20
 20
-1e+20
 30
-1e+20
  9
$PLIMMIN
 10
0.0
 20
0.0
  9
$PLIMMAX
 10
420.0
 20
297.0
  9
$UNITMODE
 70
0
  9
$VISRETAIN
 70
1
  9
$PLINEGEN
 70
0
  9
$PSLTSCALE
 70
1
  9
$TREEDEPTH
 70
3020
  9
$CMLSTYLE
  2
Standard
  9
$CMLJUST
 70
0
  9
$CMLSCALE
 40
20.0
  9
$PROXYGRAPHICS
 70
1
  9
$MEASUREMENT
 70
1
  9
$CELWEIGHT
370
-1
  9
$ENDCAPS
280
0
  9
$JOINSTYLE
280
0
  9
$LWDISPLAY
290
0
  9
$INSUNITS
 70
6
  9
$HYPERLINKBASE
  1

  9
$STYLESHEET
  1

  9
$XEDIT
290
1
  9
$CEPSNTYPE
380
0
  9
$PSTYLEMODE
290
1
  9
$FINGERPRINTGUID
  2
{34BC783E-73EF-4622-8422-23920DEF56C7}
  9
$VERSIONGUID
  2
{C31F1D58-CD07-42DE-AB8A-0645DF9F8C35}
  9
$EXTNAMES
290
1
  9
$PSVPSCALE
 40
0.0
  9
$OLESTARTUP
290
0
  0
ENDSEC
  0
SECTION
  2
CLASSES
  0
CLASS
  1
ACDBDICTIONARYWDFLT
  2
AcDbDictionaryWithDefault
  3
ObjectDBX Classes
 90
0
280
0
281
0
  0
CLASS
  1
SUN
  2
AcDbSun
  3
SCENEOE
 90
1153
280
0
281
0
  0
CLASS
  1
VISUALSTYLE
  2
AcDbVisualStyle
  3
ObjectDBX Classes
 90
4095
280
0
281
0
  0
CLASS
  1
MATERIAL
  2
AcDbMaterial
  3
ObjectDBX Classes
 90
1153
280
0
281
0
  0
CLASS
  1
SCALE
  2
AcDbScale
  3
ObjectDBX Classes
 90
1153
280
0
281
0
  0
CLASS
  1
TABLESTYLE
  2
AcDbTableStyle
  3
ObjectDBX Classes
 90
4095
280
0
281
0
  0
CLASS
  1
MLEADERSTYLE
  2
AcDbMLeaderStyle
  3
ACDB_MLEADERSTYLE_CLASS
 90
4095
280
0
281
0
  0
CLASS
  1
DICTIONARYVAR
  2
AcDbDictionaryVar
  3
ObjectDBX Classes
 90
0
280
0
281
0
  0
CLASS
  1
CELLSTYLEMAP
  2
AcDbCellStyleMap
  3
ObjectDBX Classes
 90
1152
280
0
281
0
  0
CLASS
  1
MENTALRAYRENDERSETTINGS
  2
AcDbMentalRayRenderSettings
  3
SCENEOE
 90
1024
280
0
281
0
  0
CLASS
  1
ACDBDETAILVIEWSTYLE
  2
AcDbDetailViewStyle
  3
ObjectDBX Classes
 90
1025
280
0
281
0
  0
CLASS
  1
ACDBSECTIONVIEWSTYLE
  2
AcDbSectionViewStyle
  3
ObjectDBX Classes
 90
1025
280
0
281
0
  0
CLASS
  1
RASTERVARIABLES
  2
AcDbRasterVariables
  3
ISM
 90
0
280
0
281
0
  0
CLASS
  1
ACDBPLACEHOLDER
  2
AcDbPlaceHolder
  3
ObjectDBX Classes
 90
0
280
0
281
0
  0
CLASS
  1
LAYOUT
  2
AcDbLayout
  3
ObjectDBX Classes
 90
0
280
0
281
0
  0
ENDSEC
  0
SECTION
  2
TABLES
  0
TABLE
  2
VPORT
  5
8
330
0
100
AcDbSymbolTable
 70
1
  0
VPORT
  5
23
330
8
100
AcDbSymbolTableRecord
100
AcDbViewportTableRecord
  2
*Active
 70
0
 10
0.0
 20
0.0
 11
1.0
 21
1.0
 12
344.2
 22
148.5
 13
0.0
 23
0.0
 14
0.5
 24
0.5
 15
0.5
 25
0.5
 16
0.0
 26
0.0
 36
1.0
 17
0.0
 27
0.0
 37
0.0
 40
297.0
 41
1.34
 42
50.0
 43
0.0
 44
0.0
 50
0.0
 51
0.0
 71
0
 72
1000
 73
1
 74
3
 75
0
 76
0
 77
0
 78
0
281
0
 65
0
146
0.0
  0
ENDTAB
  0
TABLE
  2
LTYPE
  5
2
330
0
100
AcDbSymbolTable
 70
3
  0
LTYPE
  5
24
330
2
100
AcDbSymbolTableRecord
100
AcDbLinetypeTableRecord
  2
ByBlock
 70
0
  3

 72
65
 73
0
 40
0.0
  0
LTYPE
  5
25
330
2
100
AcDbSymbolTableRecord
100
AcDbLinetypeTableRecord
  2
ByLayer
 70
0
  3

 72
65
 73
0
 40
0.0
  0
LTYPE
  5
26
330
2
100
AcDbSymbolTableRecord
100
AcDbLinetypeTableRecord
  2
Continuous
 70
0
  3

 72
65
 73
0
 40
0.0
  0
ENDTAB
  0
TABLE
  2
LAYER
  5
1
330
0
100
AcDbSymbolTable
 70
2
  0
LAYER
  5
27
330
1
100
AcDbSymbolTableRecord
100
AcDbLayerTableRecord
  2
0
 70
0
 62
7
  6
Continuous
370
-3
390
13
  0
LAYER
  5
28
330
1
100
AcDbSymbolTableRecord
100
AcDbLayerTableRecord
  2
Defpoints
 70
0
 62
7
  6
Continuous
290
0
370
-3
390
13
  0
ENDTAB
  0
TABLE
  2
STYLE
  5
5
330
0
100
AcDbSymbolTable
 70
1
  0
STYLE
  5
29
330
5
100
AcDbSymbolTableRecord
100
AcDbTextStyleTableRecord
  2
Standard
 70
0
 40
0.0
 41
1.0
 50
0.0
 71
0
 42
2.5
  3
txt
  4

  0
ENDTAB
  0
TABLE
  2
VIEW
  5
7
330
0
100
AcDbSymbolTable
 70
0
  0
ENDTAB
  0
TABLE
  2
UCS
  5
6
330
0
100
AcDbSymbolTable
 70
0
  0
ENDTAB
  0
TABLE
  2
APPID
  5
3
330
0
100
AcDbSymbolTable
 70
3
  0
APPID
  5
2A
330
3
100
AcDbSymbolTableRecord
100
AcDbRegAppTableRecord
  2
ACAD
 70
0
  0
APPID
  5
5B
330
3
100
AcDbSymbolTableRecord
100
AcDbRegAppTableRecord
  2
HATCHBACKGROUNDCOLOR
 70
0
  0
APPID
  5
5C
330
3
100
AcDbSymbolTableRecord
100
AcDbRegAppTableRecord
  2
EZDXF
 70
0
  0
ENDTAB
  0
TABLE
  2
DIMSTYLE
  5
4
330
0
100
AcDbSymbolTable
 70
1
100
AcDbDimStyleTable
  0
DIMSTYLE
105
2B
330
4
100
AcDbSymbolTableRecord
100
AcDbDimStyleTableRecord
  2
Standard
 70
0
  3

  4

 40
1.0
 41
2.5
 42
0.625
 43
3.75
 44
1.25
 45
0.0
 46
0.0
 47
0.0
 48
0.0
140
2.5
141
2.5
142
0.0
143
0.03937007874
144
1.0
145
0.0
146
1.0
147
0.625
148
0.0
 71
0
 72
0
 73
0
 74
0
 75
0
 76
0
 77
1
 78
8
 79
3
170
0
171
3
172
1
173
0
174
0
175
0
176
0
177
0
178
0
179
2
271
2
272
2
273
2
274
3
275
0
276
0
277
2
278
44
279
0
280
0
281
0
282
0
283
0
284
8
285
0
286
0
288
0
289
3
371
-2
372
-2
  0
ENDTAB
  0
TABLE
  2
BLOCK_RECORD
  5
9
330
0
100
AcDbSymbolTable
 70
2
  0
BLOCK_RECORD
  5
17
330
9
100
AcDbSymbolTableRecord
100
AcDbBlockTableRecord
  2
*Model_Space
340
1A
  0
BLOCK_RECORD
  5
1B
330
9
100
AcDbSymbolTableRecord
100
AcDbBlockTableRecord
  2
*Paper_Space
340
1E
  0
ENDTAB
  0
ENDSEC
  0
SECTION
  2
BLOCKS
  0
BLOCK
  5
18
330
17
100
AcDbEntity
  8
0
100
AcDbBlockBegin
  2
*Model_Space
 70
0
 10
0.0
 20
0.0
 30
0.0
  3
*Model_Space
  1

  0
ENDBLK
  5
19
330
17
100
AcDbEntity
  8
0
100
AcDbBlockEnd
  0
BLOCK
  5
1C
330
1B
100
AcDbEntity
  8
0
100
AcDbBlockBegin
  2
*Paper_Space
 70
0
 10
0.0
 20
0.0
 30
0.0
  3
*Paper_Space
  1

  0
ENDBLK
  5
1D
330
1B
100
AcDbEntity
  8
0
100
AcDbBlockEnd
  0
ENDSEC
  0
SECTION
  2
ENTITIES
  0
SPLINE
  5
2F
330
17
100
AcDbEntity
  8
0
 62
4
100
AcDbSpline
 70
0
 71
3
 72
0
 73
0
 74
51
 11
40.129203673205105
 21
0.0
 31
0.0
 11
40.129203673205105
 21
0.0
 31
0.0
 11
40.125406868777
 21
0.13535615741673984
 31
0.0
 11
40.11404623479731
 21
0.269996988391375
 31
0.0
 11
40.09521452875078
 21
0.4031971974331507
 31
0.0
 11
40.06907696755757
 21
0.5342152000550741
 31
0.0
 11
40.03588462203262
 21
0.662293378440664
 31
0.0
 11
39.99598869210145
 21
0.7866666045363073
 31
0.0
 11
39.94985237212203
 21
0.9065793157425682
 31
0.0
 11
39.89805732832807
 21
1.0213102002045318
 31
0.0
 11
39.84130248823032
 21
1.1302027588195078
 31
0.0
 11
39.780393608811806
 21
1.2326997869318488
 31
0.0
 11
39.71622267291822
 21
1.3283801804186828
 31
0.0
 11
39.649736320429234
 21
1.4169974077842213
 31
0.0
 11
39.58189201610748
 21
1.4985205731851985
 31
0.0
 11
39.51359916145891
 21
1.573181541340965
 31
0.0
 11
39.44563926459356
 21
1.641535960305827
 31
0.0
 11
39.37855334385143
 21
1.704554257106334
 31
0.0
 11
39.31247340294423
 21
1.7637756955881772
 31
0.0
 11
39.24685310143687
 21
1.8215964901987187
 31
0.0
 11
39.18001272205696
 21
1.881853048980719
 31
0.0
 11
39.108354526706435
 21
1.9510862859462552
 31
0.0
 11
39.02512484023563
 21
2.0414350006153454
 31
0.0
 11
38.919491884914436
 21
2.1772466363517835
 31
0.0
 11
38.78269046435676
 21
2.406637000340842
 31
0.0
 11
38.64459633285262
 21
2.7914604522142126
 31
0.0
 11
38.60489044384386
 21
3.2833061426248458
 31
0.0
 11
38.67946626979466
 21
3.6852980883792044
 31
0.0
 11
38.77769934578144
 21
3.933662398496029
 31
0.0
 11
38.86017866363057
 21
4.084660026882828
 31
0.0
 11
38.92783759447693
 21
4.187189730038123
 31
0.0
 11
38.98746204279825
 21
4.267021197668362
 31
0.0
 11
39.043771025045714
 21
4.3372194007091425
 31
0.0
 11
39.09926645315923
 21
4.4048176678304785
 31
0.0
 11
39.15499088938567
 21
4.473872172197704
 31
0.0
 11
39.211099219366254
 21
4.546835737079406
 31
0.0
 11
39.26721423351761
 21
4.625206518374269
 31
0.0
 11
39.32264625210283
 21
4.709855590888829
 31
0.0
 11
39.376534755120545
 21
4.801206044464092
 31
0.0
 11
39.42794492385887
 21
4.89934086297181
 31
0.0
 11
39.47593664851415
 21
5.004075962512819
 31
0.0
 11
39.51961509437757
 21
5.115016152393847
 31
0.0
 11
39.55816737939874
 21
5.231602697569032
 31
0.0
 11
39.5908875628484
 21
5.3531563565269655
 31
0.0
 11
39.61719107800551
 21
5.47891701579869
 31
0.0
 11
39.63661949761983
 21
5.60807939850279
 31
0.0
 11
39.64883682634306
 21
5.739823424776804
 31
0.0
 11
39.65361914736751
 21
5.873337538344567
 31
0.0
 11
39.65084017162375
 21
6.0078336577503375
 31
0.0
 11
39.64045578022475
 21
6.142553299173676
 31
0.0
 11
39.62249076244948
 21
6.276765680163008
 31
0.0
  0
SPLINE
  5
30
330
17
100
AcDbEntity
  8
0
100
AcDbSpline
 70
0
 71
3
 72
0
 73
0
 74
51
 11
40.129203673205105
 21
0.0
 31
0.0
 11
40.129203673205105
 21
0.0
 31
0.0
 11
40.125412724281645
 21
0.13534584332760746
 31
0.0
 11
40.1140695394258
 21
0.2699781921912979
 31
0.0
 11
40.095266521490686
 21
0.4031735578063167
 31
0.0
 11
40.069168289338194
 21
0.5341921081690064
 31
0.0
 11
40.0360250656904
 21
0.662277888490392
 31
0.0
 11
39.996186949930674
 21
0.7866673020156332
 31
0.0
 11
39.950115790122936
 21
0.9066061377866815
 31
0.0
 11
39.898391680565425
 21
1.0213742056890642
 31
0.0
 11
39.841711787812784
 21
1.1303158506978233
 31
0.0
 11
39.78087997377839
 21
1.2328743949706764
 31
0.0
 11
39.71678626613597
 21
1.3286289186518032
 31
0.0
 11
39.650375383301785
 21
1.4173327276333731
 31
0.0
 11
39.58260301785128
 21
1.4989544408869353
 31
0.0
 11
39.514377091202945
 21
1.5737251785786044
 31
0.0
 11
39.4464781067289
 21
1.6421997028498803
 31
0.0
 11
39.379446806228586
 21
1.7053476138364503
 31
0.0
 11
39.31341603105943
 21
1.7647077414243941
 31
0.0
 11
39.247842053183774
 21
1.822676824904064
 31
0.0
 11
39.18105080652628
 21
1.883093744053433
 31
0.0
 11
39.10945591519898
 21
1.9525055844135841
 31
0.0
 11
39.02632688648293
 21
2.0430639354950877
 31
0.0
 11
38.92088120454348
 21
2.179138598442121
 31
0.0
 11
38.78445587868438
 21
2.4088673345054055
 31
0.0
 11
38.64707172287102
 21
2.794053051558558
 31
0.0
 11
38.60834833323833
 21
3.2860803683101074
 31
0.0
 11
38.683784740529354
 21
3.6880154269269525
 31
0.0
 11
38.782592952311845
 21
3.9362574439050224
 31
0.0
 11
38.865453655825895
 21
4.087152140793221
 31
0.0
 11
38.933392781047374
 21
4.189599813436452
 31
0.0
 11
38.99324781634333
 21
4.269356987383825
 31
0.0
 11
39.04976546349423
 21
4.339478526942568
 31
0.0
 11
39.105463754325456
 21
4.406991944959966
 31
0.0
 11
39.16139561127655
 21
4.475950739864597
 31
0.0
 11
39.21772313556204
 21
4.5488072009136875
 31
0.0
 11
39.27407439529205
 21
4.627060431477197
 31
0.0
 11
39.32976362721745
 21
4.711583503650063
 31
0.0
 11
39.383933153338965
 21
4.802802251903766
 31
0.0
 11
39.435650075097875
 21
4.900802920730257
 31
0.0
 11
39.483975375154564
 21
5.005405012196835
 31
0.0
 11
39.528014557604955
 21
5.116217082889436
 31
0.0
 11
39.56695439886537
 21
5.23268416417114
 31
0.0
 11
39.60008801749698
 21
5.354130680119266
 31
0.0
 11
39.62682939726539
 21
5.479799987033195
 31
0.0
 11
39.64671824835106
 21
5.608890014792625
 31
0.0
 11
39.65941639339388
 21
5.740583589073139
 31
0.0
 11
39.66469749616471
 21
5.874071746653317
 31
0.0
 11
39.662432671981406
 21
6.008568696344397
 31
0.0
 11
39.652575063937135
 21
6.143317962638777
 31
0.0
 11
39.635146585392256
 21
6.277590509108308
 31
0.0
  0
CIRCLE
  5
31
330
17
100
AcDbEntity
  8
0
  6
DASHED
 62
4
100
AcDbCircle
 10
1.0
 20
0.0
 30
0.0
 40
39.0
  0
CIRCLE
  5
32
330
17
100
AcDbEntity
  8
0
  6
DASHED
 62
0
100
AcDbCircle
 10
0.0
 20
0.0
 30
0.0
 40
40.0
  0
CIRCLE
  5
33
330
17
100
AcDbEntity
  8
0
 62
4
100
AcDbCircle
 10
1.0
 20
0.0
 30
0.0
 40
23.4
  0
CIRCLE
  5
34
330
17
100
AcDbEntity
  8
0
100
AcDbCircle
 10
0.0
 20
0.0
 30
0.0
 40
22.4
  0
CIRCLE
  5
35
330
17
100
AcDbEntity
  8
0
 62
4
100
AcDbCircle
 10
32.2
 20
0.0
 30
0.0
 40
4.680000000000001
  0
CIRCLE
  5
36
330
17
100
AcDbEntity
  8
0
 62
4
100
AcDbCircle
 10
29.82504141435215
 20
11.939723089790803
 30
0.0
 40
4.680000000000001
  0
CIRCLE
  5
37
330
17
100
AcDbEntity
  8
0
 62
4
100
AcDbCircle
 10
23.061731573020285
 20
22.061731573020282
 30
0.0
 40
4.680000000000001
  0
CIRCLE
  5
38
330
17
100
AcDbEntity
  8
0
 62
4
100
AcDbCircle
 10
12.939723089790805
 20
28.82504141435215
 30
0.0
 40
4.680000000000001
  0
CIRCLE
  5
39
330
17
100
AcDbEntity
  8
0
 62
4
100
AcDbCircle
 10
1.000000000000002
 20
31.200000000000003
 30
0.0
 40
4.680000000000001
  0
CIRCLE
  5
3A
330
17
100
AcDbEntity
  8
0
 62
4
100
AcDbCircle
 10
-10.939723089790801
 20
28.82504141435215
 30
0.0
 40
4.680000000000001
  0
CIRCLE
  5
3B
330
17
100
AcDbEntity
  8
0
 62
4
100
AcDbCircle
 10
-21.061731573020282
 20
22.061731573020285
 30
0.0
 40
4.680000000000001
  0
CIRCLE
  5
3C
330
17
100
AcDbEntity
  8
0
 62
4
100
AcDbCircle
 10
-27.82504141435215
 20
11.939723089790805
 30
0.0
 40
4.680000000000001
  0
CIRCLE
  5
3D
330
17
100
AcDbEntity
  8
0
 62
4
100
AcDbCircle
 10
-30.200000000000003
 20
3.820898013339743e-15
 30
0.0
 40
4.680000000000001
  0
CIRCLE
  5
3E
330
17
100
AcDbEntity
  8
0
 62
4
100
AcDbCircle
 10
-27.825041414352153
 20
-11.9397230897908
 30
0.0
 40
4.680000000000001
  0
CIRCLE
  5
3F
330
17
100
AcDbEntity
  8
0
 62
4
100
AcDbCircle
 10
-21.06173157302029
 20
-22.061731573020282
 30
0.0
 40
4.680000000000001
  0
CIRCLE
  5
40
330
17
100
AcDbEntity
  8
0
 62
4
100
AcDbCircle
 10
-10.939723089790819
 20
-28.825041414352143
 30
0.0
 40
4.680000000000001
  0
CIRCLE
  5
41
330
17
100
AcDbEntity
  8
0
 62
4
100
AcDbCircle
 10
0.9999999999999942
 20
-31.200000000000003
 30
0.0
 40
4.680000000000001
  0
CIRCLE
  5
42
330
17
100
AcDbEntity
  8
0
 62
4
100
AcDbCircle
 10
12.939723089790808
 20
-28.825041414352146
 30
0.0
 40
4.680000000000001
  0
CIRCLE
  5
43
330
17
100
AcDbEntity
  8
0
 62
4
100
AcDbCircle
 10
23.06173157302028
 20
-22.06173157302029
 30
0.0
 40
4.680000000000001
  0
CIRCLE
  5
44
330
17
100
AcDbEntity
  8
0
 62
4
100
AcDbCircle
 10
29.825041414352143
 20
-11.93972308979082
 30
0.0
 40
4.680000000000001
  0
CIRCLE
  5
45
330
17
100
AcDbEntity
  8
0
 62
6
100
AcDbCircle
 10
31.2
 20
0.0
 30
0.0
 40
3.6800000000000006
  0
CIRCLE
  5
46
330
17
100
AcDbEntity
  8
0
 62
6
100
AcDbCircle
 10
28.825041414352146
 20
11.939723089790801
 30
0.0
 40
3.6800000000000006
  0
CIRCLE
  5
47
330
17
100
AcDbEntity
  8
0
 62
6
100
AcDbCircle
 10
22.061731573020285
 20
22.061731573020282
 30
0.0
 40
3.6800000000000006
  0
CIRCLE
  5
48
330
17
100
AcDbEntity
  8
0
 62
6
100
AcDbCircle
 10
11.939723089790803
 20
28.825041414352146
 30
0.0
 40
3.6800000000000006
  0
CIRCLE
  5
49
330
17
100
AcDbEntity
  8
0
 62
6
100
AcDbCircle
 10
1.910449006669871e-15
 20
31.2
 30
0.0
 40
3.6800000000000006
  0
CIRCLE
  5
4A
330
17
100
AcDbEntity
  8
0
 62
6
100
AcDbCircle
 10
-11.9397230897908
 20
28.825041414352146
 30
0.0
 40
3.6800000000000006
  0
CIRCLE
  5
4B
330
17
100
AcDbEntity
  8
0
 62
6
100
AcDbCircle
 10
-22.061731573020282
 20
22.061731573020285
 30
0.0
 40
3.6800000000000006
  0
CIRCLE
  5
4C
330
17
100
AcDbEntity
  8
0
 62
6
100
AcDbCircle
 10
-28.825041414352146
 20
11.939723089790805
 30
0.0
 40
3.6800000000000006
  0
CIRCLE
  5
4D
330
17
100
AcDbEntity
  8
0
 62
6
100
AcDbCircle
 10
-31.2
 20
3.820898013339742e-15
 30
0.0
 40
3.6800000000000006
  0
CIRCLE
  5
4E
330
17
100
AcDbEntity
  8
0
 62
6
100
AcDbCircle
 10
-28.82504141435215
 20
-11.939723089790798
 30
0.0
 40
3.6800000000000006
  0
CIRCLE
  5
4F
330
17
100
AcDbEntity
  8
0
 62
6
100
AcDbCircle
 10
-22.06173157302029
 20
-22.061731573020282
 30
0.0
 40
3.6800000000000006
  0
CIRCLE
  5
50
330
17
100
AcDbEntity
  8
0
 62
6
100
AcDbCircle
 10
-11.939723089790819
 20
-28.82504141435214
 30
0.0
 40
3.6800000000000006
  0
CIRCLE
  5
51
330
17
100
AcDbEntity
  8
0
 62
6
100
AcDbCircle
 10
-5.731347020009612e-15
 20
-31.2
 30
0.0
 40
3.6800000000000006
  0
CIRCLE
  5
52
330
17
100
AcDbEntity
  8
0
 62
6
100
AcDbCircle
 10
11.939723089790808
 20
-28.825041414352143
 30
0.0
 40
3.6800000000000006
  0
CIRCLE
  5
53
330
17
100
AcDbEntity
  8
0
 62
6
100
AcDbCircle
 10
22.06173157302028
 20
-22.06173157302029
 30
0.0
 40
3.6800000000000006
  0
CIRCLE
  5
54
330
17
100
AcDbEntity
  8
0
 62
6
100
AcDbCircle
 10
28.82504141435214
 20
-11.939723089790819
 30
0.0
 40
3.6800000000000006
  0
LINE
  5
55
330
17
100
AcDbEntity
  8
0
100
AcDbLine
 10
45.6
 20
0.0
 30
0.0
 11
40.0
 21
0.0
 31
0.0
  0
LINE
  5
56
330
17
100
AcDbEntity
  8
0
100
AcDbLine
 10
45.038588331138286
 20
7.133411605834528
 30
0.0
 11
39.507533623805514
 21
6.2573786016092345
 31
0.0
  0
ARC
  5
57
330
17
100
AcDbEntity
  8
0
100
AcDbCircle
 10
0.0
 20
0.0
 30
0.0
 40
45.6
100
AcDbArc
 50
0.0
 51
9.0
  0
LINE
  5
58
330
17
100
AcDbEntity
  8
0
 62
4
100
AcDbLine
 10
34.4
 20
0.0
 30
0.0
 11
40.0
 21
0.0
 31
0.0
  0
LINE
  5
59
330
17
100
AcDbEntity
  8
0
 62
4
100
AcDbLine
 10
33.96747877210629
 20
5.357736780649192
 30
0.0
 11
39.4949602428786
 21
6.25603995345265
 31
0.0
  0
ARC
  5
5A
330
17
100
AcDbEntity
  8
0
 62
4
100
AcDbCircle
 10
1.0
 20
0.0
 30
0.0
 40
33.4
100
AcDbArc
 50
0.0
 51
9.23076923076923
  0
ENDSEC
  0
SECTION
  2
OBJECTS
  0
DICTIONARY
  5
A
330
0
100
AcDbDictionary
281
1
  3
ACAD_COLOR
350
B
  3
ACAD_GROUP
350
C
  3
ACAD_LAYOUT
350
D
  3
ACAD_MATERIAL
350
E
  3
ACAD_MLEADERSTYLE
350
F
  3
ACAD_MLINESTYLE
350
10
  3
ACAD_PLOTSETTINGS
350
11
  3
ACAD_PLOTSTYLENAME
350
12
  3
ACAD_SCALELIST
350
14
  3
ACAD_TABLESTYLE
350
15
  3
ACAD_VISUALSTYLE
350
16
  3
EZDXF_META
350
2D
  0
DICTIONARY
  5
B
330
A
100
AcDbDictionary
281
1
  0
DICTIONARY
  5
C
330
A
100
AcDbDictionary
281
1
  0
DICTIONARY
  5
D
330
A
100
AcDbDictionary
281
1
  3
Model
350
1A
  3
Layout1
350
1E
  0
DICTIONARY
  5
E
330
A
100
AcDbDictionary
281
1
  3
ByBlock
350
1F
  3
ByLayer
350
20
  3
Global
350
21
  0
DICTIONARY
  5
F
330
A
100
AcDbDictionary
281
1
  3
Standard
350
2C
  0
DICTIONARY
  5
10
330
A
100
AcDbDictionary
281
1
  3
Standard
350
22
  0
DICTIONARY
  5
11
330
A
100
AcDbDictionary
281
1
  0
ACDBDICTIONARYWDFLT
  5
12
330
A
100
AcDbDictionary
281
1
  3
Normal
350
13
100
AcDbDictionaryWithDefault
340
13
  0
ACDBPLACEHOLDER
  5
13
330
12
  0
DICTIONARY
  5
14
330
A
100
AcDbDictionary
281
1
  0
DICTIONARY
  5
15
330
A
100
AcDbDictionary
281
1
  0
DICTIONARY
  5
16
330
A
100
AcDbDictionary
281
1
  0
LAYOUT
  5
1A
330
D
100
AcDbPlotSettings
  1

  2
Adobe PDF
  4
A3
  6

 40
7.5
 41
20.0
 42
7.5
 43
20.0
 44
420.0
 45
297.0
 46
0.0
 47
0.0
 48
0.0
 49
0.0
140
0.0
141
0.0
142
1.0
143
1.0
 70
1024
 72
1
 73
1
 74
5
  7

 75
16
 76
0
 77
2
 78
300
147
1.0
148
0.0
149
0.0
100
AcDbLayout
  1
Model
 70
1
 71
0
 10
0.0
 20
0.0
 11
420.0
 21
297.0
 12
0.0
 22
0.0
 32
0.0
 14
1e+20
 24
1e+20
 34
1e+20
 15
-1e+20
 25
-1e+20
 35
-1e+20
146
0.0
 13
0.0
 23
0.0
 33
0.0
 16
1.0
 26
0.0
 36
0.0
 17
0.0
 27
1.0
 37
0.0
 76
1
330
17
  0
LAYOUT
  5
1E
330
D
100
AcDbPlotSettings
  1

  2
Adobe PDF
  4
A3
  6

 40
7.5
 41
20.0
 42
7.5
 43
20.0
 44
420.0
 45
297.0
 46
0.0
 47
0.0
 48
0.0
 49
0.0
140
0.0
141
0.0
142
1.0
143
1.0
 70
0
 72
1
 73
1
 74
5
  7

 75
16
 76
0
 77
2
 78
300
147
1.0
148
0.0
149
0.0
100
AcDbLayout
  1
Layout1
 70
1
 71
1
 10
0.0
 20
0.0
 11
420.0
 21
297.0
 12
0.0
 22
0.0
 32
0.0
 14
1e+20
 24
1e+20
 34
1e+20
 15
-1e+20
 25
-1e+20
 35
-1e+20
146
0.0
 13
0.0
 23
0.0
 33
0.0
 16
1.0
 26
0.0
 36
0.0
 17
0.0
 27
1.0
 37
0.0
 76
1
330
1B
  0
MATERIAL
  5
1F
102
{ACAD_REACTORS
330
E
102
}
330
E
100
AcDbMaterial
  1
ByBlock
  2

 70
0
 40
1.0
 71
1
 41
1.0
 91
-1023410177
 42
1.0
 72
1
  3

 73
1
 74
1
 75
1
 44
0.5
 73
0
 45
1.0
 46
1.0
 77
1
  4

 78
1
 79
1
170
1
 48
1.0
171
1
  6

172
1
173
1
174
1
140
1.0
141
1.0
175
1
  7

176
1
177
1
178
1
143
1.0
179
1
  8

270
1
271
1
272
1
145
1.0
146
1.0
273
1
  9

274
1
275
1
276
1
 42
1.0
 72
1
  3

 73
1
 74
1
 75
1
 94
63
  0
MATERIAL
  5
20
102
{ACAD_REACTORS
330
E
102
}
330
E
100
AcDbMaterial
  1
ByLayer
  2

 70
0
 40
1.0
 71
1
 41
1.0
 91
-1023410177
 42
1.0
 72
1
  3

 73
1
 74
1
 75
1
 44
0.5
 73
0
 45
1.0
 46
1.0
 77
1
  4

 78
1
 79
1
170
1
 48
1.0
171
1
  6

172
1
173
1
174
1
140
1.0
141
1.0
175
1
  7

176
1
177
1
178
1
143
1.0
179
1
  8

270
1
271
1
272
1
145
1.0
146
1.0
273
1
  9

274
1
275
1
276
1
 42
1.0
 72
1
  3

 73
1
 74
1
 75
1
 94
63
  0
MATERIAL
  5
21
102
{ACAD_REACTORS
330
E
102
}
330
E
100
AcDbMaterial
  1
Global
  2

 70
0
 40
1.0
 71
1
 41
1.0
 91
-1023410177
 42
1.0
 72
1
  3

 73
1
 74
1
 75
1
 44
0.5
 73
0
 45
1.0
 46
1.0
 77
1
  4

 78
1
 79
1
170
1
 48
1.0
171
1
  6

172
1
173
1
174
1
140
1.0
141
1.0
175
1
  7

176
1
177
1
178
1
143
1.0
179
1
  8

270
1
271
1
272
1
145
1.0
146
1.0
273
1
  9

274
1
275
1
276
1
 42
1.0
 72
1
  3

 73
1
 74
1
 75
1
 94
63
  0
MLINESTYLE
  5
22
102
{ACAD_REACTORS
330
10
102
}
330
10
100
AcDbMlineStyle
  2
Standard
 70
0
  3

 62
256
 51
90.0
 52
90.0
 71
2
 49
0.5
 62
256
  6
BYLAYER
 49
-0.5
 62
256
  6
BYLAYER
  0
MLEADERSTYLE
  5
2C
102
{ACAD_REACTORS
330
F
102
}
330
F
100
AcDbMLeaderStyle
179
2
170
2
171
1
172
0
 90
2
 40
0.0
 41
0.0
173
1
 91
-1056964608
 92
-2
290
1
 42
2.0
291
1
 43
8.0
  3
Standard
 44
4.0
300

342
29
174
1
175
1
176
0
178
1
 93
-1056964608
 45
4.0
292
0
297
0
 46
4.0
 94
-1056964608
 47
1.0
 49
1.0
140
1.0
294
1
141
0.0
177
0
142
1.0
295
0
296
0
143
3.75
271
0
272
9
273
9
  0
DICTIONARY
  5
2D
330
A
100
AcDbDictionary
280
1
281
1
  3
CREATED_BY_EZDXF
350
2E
  3
WRITTEN_BY_EZDXF
350
5D
  0
DICTIONARYVAR
  5
2E
330
2D
100
DictionaryVariables
280
0
  1
0.17.1 @ 2021-12-21T03:08:31.857526+00:00
  0
DICTIONARYVAR
  5
5D
330
2D
100
DictionaryVariables
280
0
  1
0.17.1 @ 2021-12-21T03:08:31.872665+00:00
  0
ENDSEC
  0
EOF
